<?xml version="1.0" encoding="UTF-8"?>
<svg width="49px" height="56px" viewBox="0 0 49 56" version="1.1" xmlns="http://www.w3.org/2000/svg" xmlns:xlink="http://www.w3.org/1999/xlink">
    <!-- Generator: Sketch 49.3 (51167) - http://www.bohemiancoding.com/sketch -->
    <title>Group 8</title>
    <desc>Created with Sketch.</desc>
    <defs></defs>
    <g id="Page-1" stroke="none" stroke-width="1" fill="none" fill-rule="evenodd">
        <g id="Desktop-HD" transform="translate(-37.000000, -31.000000)">
            <g id="Group-8" transform="translate(33.000000, 31.000000)">
                <g id="Group-7"></g>
                <g id="Group" transform="translate(4.000000, 0.000000)" fill="#36B3ED" fill-rule="nonzero">
                    <path d="M24.5,0.227888539 C22.606079,0.227888539 20.8708521,1.18302202 19.4350962,2.68575371 C17.9993402,4.18848539 16.7916523,6.26724944 15.7836538,8.7615964 C15.4938333,9.47877393 15.2142117,10.2368378 14.9591346,11.0228324 C12.6970791,10.5197334 10.5749149,10.2638178 8.67708333,10.2953043 C5.15742024,10.3536953 2.18665327,11.4046706 0.78525641,13.8936189 C-0.148512718,15.5520306 -0.182470974,17.5588252 0.392628205,19.5762031 C0.967727385,21.5935811 2.13196362,23.6987721 3.76923077,25.8486751 C4.28739321,26.5290795 4.86723659,27.2275599 5.47716346,27.9132818 C4.86819021,28.5980643 4.28668585,29.2787518 3.76923077,29.9582256 C2.13196362,32.1081222 0.967727385,34.2133133 0.392628205,36.2306975 C-0.182470974,38.2480189 -0.148513974,40.2548638 0.78525641,41.9132818 C2.18667526,44.4022616 5.15752515,45.4528908 8.67708333,45.5115964 C10.5749086,45.5430464 12.6970791,45.3040453 14.9591346,44.8037312 C15.2142117,45.5897284 15.4938333,46.3477865 15.7836538,47.0649672 C16.7916523,49.5592953 17.9993402,51.6381222 19.4350962,53.1408099 C20.8708521,54.6435604 22.606079,55.5986751 24.5,55.5986751 C26.3939222,55.5986751 28.1291486,54.6435604 29.5649038,53.1408099 C31.0006591,51.6381222 32.2083477,49.5592953 33.2163462,47.0649672 C33.508329,46.3424369 33.7841556,45.5764218 34.0408654,44.7840683 C34.9144292,44.9785425 35.7689522,45.1382752 36.5929487,45.2559784 C39.2308103,45.6327515 41.5978282,45.6219604 43.6013622,45.118338 C45.6048962,44.6146526 47.2813357,43.5710706 48.2147436,41.9132818 C49.1485096,40.2548638 49.182471,38.2677447 48.6073718,36.2503604 C48.0322726,34.2329762 46.868037,32.1081222 45.2307692,29.9582256 C44.7126068,29.2778244 44.1327634,28.5981738 43.5228365,27.9132818 C44.1327634,27.2275599 44.7126068,26.5290795 45.2307692,25.8486751 C46.868037,23.6987721 48.0322726,21.5935811 48.6073718,19.5762031 C49.182471,17.5588252 49.1485096,15.5520431 48.2147436,13.8936189 C47.2813357,12.2358553 45.6048962,11.1922418 43.6013622,10.6885627 C42.5995949,10.43672 41.4956827,10.3154013 40.3229167,10.2953043 C39.1501507,10.2752324 37.9118792,10.3625294 36.5929487,10.5509222 C35.7689522,10.668621 34.9144292,10.8480236 34.0408654,11.0424953 C33.7841556,10.2501444 33.508329,9.48412288 33.2163462,8.7615964 C32.2083477,6.26724944 31.0006598,4.18848539 29.5649038,2.68575371 C28.1291479,1.18302202 26.3939204,0.227888539 24.5,0.227888539 Z M24.5,2.74474247 C25.5551384,2.74474247 26.6392175,3.26393169 27.7588141,4.43575371 C28.8784107,5.60757573 29.9555997,7.41742652 30.8802083,9.70541663 C31.1295982,10.3225448 31.3627157,10.9885773 31.5869391,11.6717088 C29.3203951,12.3274165 26.9334292,13.2152644 24.5,14.3262031 C22.0635755,13.2071325 19.6831788,12.3118662 17.4130609,11.6520458 C17.6356007,10.975255 17.8725226,10.3172972 18.1197917,9.70541663 C19.0444003,7.41742022 20.1215893,5.60757573 21.2411859,4.43575371 C22.3607825,3.26393169 23.4448616,2.74474247 24.5,2.74474247 Z M8.71634615,12.8121582 C10.3339863,12.7853204 12.2126934,13.0047787 14.2720353,13.4610346 C13.6631135,15.8259763 13.2041092,18.4260198 12.9174679,21.1885627 C10.7934756,22.7731236 8.89105,24.4242194 7.22435897,26.0846301 C6.70403991,25.4944562 6.21097238,24.8918685 5.77163462,24.3149672 C4.26823169,22.3408413 3.25932044,20.4736629 2.80729167,18.8880009 C2.3552629,17.3023389 2.43819603,16.0668404 2.96434295,15.1323829 C3.75282017,13.7320117 5.66975922,12.8627218 8.71634615,12.8121582 Z M40.2836538,12.8121582 C41.2995281,12.8298391 42.2173352,12.9318157 42.9927885,13.1267649 C44.5436956,13.5166571 45.5091489,14.1972836 46.0356571,15.1323829 C46.5618077,16.066853 46.6447371,17.282676 46.1927083,18.868338 C45.7406796,20.454 44.7317683,22.3408413 43.2283654,24.3149672 C42.7868377,24.8947346 42.2989466,25.4921923 41.775641,26.0846301 C40.1127896,24.431814 38.2002718,22.8051669 36.0825321,21.2278885 C35.7954498,18.4436472 35.3420949,15.8223382 34.7279647,13.4413717 C35.4904965,13.2728369 36.2360315,13.1299066 36.9463141,13.0284503 C38.1526363,12.8561402 39.2677796,12.7944836 40.2836538,12.8121582 Z M16.7063301,14.0902481 C18.243609,14.5390742 19.8630006,15.1212849 21.5160256,15.8009222 C20.5392018,16.3129252 19.5516584,16.8329047 18.5713141,17.4132818 C17.5764941,18.0022338 16.6188287,18.6218493 15.6854968,19.2419335 C15.9499586,17.4139022 16.2950549,15.6904827 16.7063301,14.0902481 Z M32.2740385,14.0902481 C32.6872787,15.6974003 33.0494264,17.4246806 33.3145032,19.2615964 C32.3811713,18.6423232 31.4235059,18.0218936 30.4286859,17.4329447 C29.4416644,16.8486143 28.4466076,16.3171126 27.4643429,15.8009222 C29.1243932,15.113509 30.729304,14.5432403 32.2740385,14.0902481 Z M24.4803686,17.118338 C26.0169106,17.8564249 27.5758883,18.6740262 29.1330128,19.5958661 C30.7472135,20.5514966 32.2692578,21.5720098 33.7071314,22.604293 C33.8522512,24.3138938 33.9230769,26.0951726 33.9230769,27.9132818 C33.9230769,29.7313816 33.8522512,31.5126749 33.7071314,33.2222706 C32.2692578,34.2545569 30.7472142,35.2554028 29.1330128,36.2110346 C27.5758896,37.1328758 26.0169093,37.9701393 24.4803686,38.7082256 C22.9559648,37.9733408 21.4123366,37.1455544 19.8669872,36.2306975 C18.2576601,35.2779343 16.7466056,34.2729312 15.3125,33.2419335 C15.1661772,31.525597 15.0769231,29.7391347 15.0769231,27.9132818 C15.0769231,26.0951738 15.1477488,24.3138938 15.2928686,22.604293 C16.7307422,21.5720092 18.2527865,20.5515017 19.8669872,19.5958661 C21.4123781,18.6809752 22.9559252,17.855113 24.4803686,17.118338 Z M12.6622596,24.609911 C12.6088936,25.6951149 12.5641026,26.7923845 12.5641026,27.9132818 C12.5641026,29.0409846 12.6082516,30.1447616 12.6622596,31.2363155 C11.3086899,30.1376949 10.0664444,29.0245697 8.95192308,27.9132818 C10.0664444,26.8042244 11.3086899,25.7059065 12.6622596,24.609911 Z M36.3377404,24.609911 C37.6873254,25.7026805 38.9164577,26.807463 40.0284455,27.9132818 C38.9174088,29.0178837 37.6858309,30.1250905 36.3377404,31.2166526 C36.3911064,30.1314525 36.4358974,29.034174 36.4358974,27.9132818 C36.4358974,26.7923833 36.3911064,25.6951155 36.3377404,24.609911 Z M7.22435897,29.7419335 C8.88966544,31.4003527 10.7959859,33.0553201 12.9174679,34.6380009 C13.2041092,37.4005382 13.6631135,40.0005842 14.2720353,42.365529 C12.2126928,42.8217893 10.3339926,43.0215646 8.71634615,42.9947425 C5.66965431,42.9437762 3.75279818,42.0748953 2.96434295,40.6745178 C2.43819728,39.7400728 2.3552629,38.5241807 2.80729167,36.9385627 C3.25932044,35.3528818 4.26823169,33.4660908 5.77163462,31.4919335 C6.21097238,30.9150372 6.70403991,30.3313889 7.22435897,29.7419335 Z M41.775641,29.7419335 C42.2959601,30.3313895 42.7890276,30.9150372 43.2283654,31.4919335 C44.7317677,33.4660279 45.7406796,35.3528818 46.1927083,36.9385627 C46.6447371,38.5241807 46.5618071,39.7400728 46.0356571,40.6745178 C45.5091489,41.6096548 44.5436956,42.2902121 42.9927885,42.6801357 C41.4418813,43.0699964 39.3589579,43.1230706 36.9463141,42.7784503 C36.2360315,42.6769941 35.4904965,42.553 34.7279647,42.3851919 C35.3392253,40.0153474 35.7951508,37.407664 36.0825321,34.6380009 C38.2040141,33.0553201 40.1103346,31.4003527 41.775641,29.7419335 Z M15.6854968,36.5846301 C16.6188287,37.2047093 17.5764941,37.8046751 18.5713141,38.3936189 C19.5470247,38.9712582 20.5241513,39.5157311 21.4963942,40.0256413 C19.8508806,40.7013701 18.2369733,41.2697537 16.7063301,41.7166526 C16.2971437,40.1215719 15.9489447,38.4056488 15.6854968,36.5846301 Z M33.3145032,36.5846301 C33.0497952,38.4143615 32.6858219,40.1348269 32.2740385,41.7363155 C30.7353178,41.2874019 29.1372268,40.7264612 27.4839744,40.0453043 C28.4612392,39.531934 29.4467334,38.9749568 30.4286859,38.3936189 C31.4235059,37.8046751 32.3811713,37.2047093 33.3145032,36.5846301 Z M24.5392628,41.5003604 C26.9601681,42.6036183 29.3315941,43.5023856 31.5869391,44.1548548 C31.3627157,44.8379888 31.1295982,45.5040144 30.8802083,46.121147 C29.9555997,48.409156 28.8784113,50.2189627 27.7588141,51.3908099 C26.6392169,52.5625942 25.5551371,53.0818211 24.5,53.0818211 C23.4448616,53.0818211 22.3607825,52.5625942 21.2411859,51.3908099 C20.1215893,50.2189627 19.0444003,48.409156 18.1197917,46.121147 C17.8746434,45.5145097 17.6339133,44.8646422 17.4130609,44.1941807 C19.6954564,43.5338375 22.0890901,42.6256024 24.5392628,41.5003604 Z" id="Shape"></path>
                </g>
                <rect id="Rectangle" x="0" y="0" width="56" height="56"></rect>
            </g>
        </g>
    </g>
</svg>